<?xml version="1.0" standalone="no"?>
<!DOCTYPE svg PUBLIC "-//W3C//DTD SVG 20010904//EN"
 "http://www.w3.org/TR/2001/REC-SVG-20010904/DTD/svg10.dtd">
<svg version="1.0" xmlns="http://www.w3.org/2000/svg"
 width="156.000000pt" height="156.000000pt" viewBox="0 0 156.000000 156.000000"
 preserveAspectRatio="xMidYMid meet">
<metadata>
Created by potrace 1.11, written by Peter Selinger 2001-2013
</metadata>
<g transform="translate(0.000000,156.000000) scale(0.100000,-0.100000)"
fill="#000000" stroke="none">
<path d="M215 1270 c-91 -21 -172 -94 -196 -177 -17 -59 -18 -330 -1 -388 19
-67 66 -121 136 -155 53 -27 74 -31 132 -30 115 2 605 2 664 0 63 -3 122 11
164 39 29 19 29 19 57 -2 46 -34 133 -46 204 -30 74 17 122 54 155 118 24 48
25 57 24 250 0 224 -6 253 -60 309 -81 84 -224 97 -326 30 -22 -14 -40 -20
-43 -14 -14 23 -90 52 -147 55 -61 3 -102 -5 -150 -31 -25 -13 -31 -13 -70 7
-74 38 -220 29 -267 -16 -11 -11 -23 -9 -67 12 -56 25 -153 36 -209 23z m470
-170 c21 -24 22 -71 2 -100 -8 -12 -61 -71 -117 -131 -73 -79 -109 -110 -124
-108 -50 3 -67 -2 -75 -24 -12 -32 -32 -46 -72 -51 -47 -5 -84 19 -98 64 -14
47 -14 243 -1 292 13 46 43 68 90 68 39 0 74 -25 85 -60 6 -19 13 -21 101 -19
92 2 94 2 94 25 0 55 78 85 115 44z m321 -6 c20 -19 24 -31 20 -52 -9 -36 -40
-61 -71 -57 -25 2 -25 2 -25 -76 l0 -79 28 0 c49 0 79 -42 73 -100 -3 -28 -49
-59 -78 -54 -30 5 -77 50 -68 65 4 5 -4 9 -17 10 -27 1 -127 1 -147 0 -10 -1
-12 -10 -8 -36 l6 -35 -55 0 -55 0 65 68 c164 172 194 210 200 259 8 61 47
113 83 113 13 0 35 -11 49 -26z m349 10 c19 -14 20 -29 23 -199 l3 -185 -25
-24 c-27 -28 -59 -27 -89 2 -16 17 -18 36 -18 173 0 215 -1 207 21 229 24 24
57 25 85 4z"/>
<path d="M10 381 c-10 -20 -8 -70 4 -90 10 -16 42 -14 61 5 21 22 10 32 -13
11 -26 -24 -44 -7 -40 39 2 33 6 38 23 36 11 -2 23 -9 27 -15 4 -6 10 -9 13
-5 9 9 -25 38 -45 38 -11 0 -24 -9 -30 -19z"/>
<path d="M160 381 c-14 -26 -13 -74 2 -89 20 -20 54 -14 66 12 10 23 8 68 -4
88 -10 16 -53 8 -64 -11z m60 -40 c0 -33 -19 -54 -39 -42 -16 10 -21 49 -9 74
14 27 48 4 48 -32z"/>
<path d="M309 400 c-6 -20 -3 -120 3 -120 4 0 8 19 9 43 0 36 2 39 12 24 28
-44 57 -72 58 -57 4 66 3 110 -3 110 -5 0 -8 -19 -9 -42 l0 -43 -17 24 c-26
37 -51 67 -53 61z"/>
<path d="M471 382 c-12 -23 -3 -38 34 -52 28 -11 29 -12 12 -25 -10 -7 -27
-10 -39 -7 -14 3 -19 1 -14 -6 8 -13 35 -16 60 -6 19 7 22 54 3 54 -7 0 -22 7
-33 15 -16 13 -17 16 -4 25 8 5 24 7 35 4 16 -4 17 -3 5 5 -23 16 -48 13 -59
-7z"/>
<path d="M609 389 c-3 -51 0 -81 11 -94 15 -18 42 -19 58 -3 13 13 17 108 5
108 -5 0 -7 -18 -7 -40 2 -50 -22 -82 -42 -56 -7 10 -12 33 -12 52 0 34 -11
62 -13 33z"/>
<path d="M765 343 l0 -58 38 -3 c20 -2 37 1 37 5 0 5 -12 9 -27 9 -27 -1 -28
1 -31 52 -4 70 -18 66 -17 -5z"/>
<path d="M905 387 c16 -9 20 -22 20 -59 -1 -65 13 -61 17 5 2 35 7 51 16 50 6
-2 12 2 12 7 0 6 -19 10 -42 10 -38 -1 -41 -2 -23 -13z"/>
<path d="M1040 374 c-26 -67 20 -123 64 -79 15 15 16 71 2 94 -14 22 -56 12
-66 -15z m60 -30 c0 -32 -28 -63 -44 -47 -10 11 -7 68 5 80 19 19 39 3 39 -33z"/>
<path d="M1188 355 c-3 -43 8 -101 12 -65 2 8 2 21 1 28 -3 22 29 12 41 -13 6
-14 15 -25 20 -25 12 0 10 14 -4 28 -9 9 -9 17 2 36 17 32 0 56 -40 56 -26 0
-28 -3 -32 -45z m55 26 c4 -1 7 -8 7 -16 0 -8 -3 -15 -7 -16 -5 0 -15 -2 -24
-4 -11 -2 -16 4 -16 20 0 16 5 22 16 20 9 -2 19 -4 24 -4z"/>
<path d="M1340 340 l0 -60 35 0 c19 0 35 4 35 9 0 4 -10 7 -22 7 -33 -3 -39 3
-28 24 7 12 17 16 31 13 15 -4 20 -3 15 5 -4 7 -18 12 -32 12 -13 0 -24 3 -24
8 0 16 16 29 31 27 9 -2 23 1 30 6 9 6 0 9 -28 9 l-43 0 0 -60z"/>
<path d="M1487 393 c-4 -3 -7 -16 -7 -29 0 -17 7 -24 30 -29 17 -4 30 -13 30
-21 0 -15 -9 -17 -50 -15 -20 2 -22 0 -10 -8 24 -17 58 -13 69 7 12 23 3 38
-32 51 -45 17 -34 36 18 32 17 -2 17 0 5 8 -17 12 -44 14 -53 4z"/>
</g>
</svg>
