<?xml version="1.0" encoding="utf-8"?>
<!-- Generator: Adobe Illustrator 22.1.0, SVG Export Plug-In . SVG Version: 6.00 Build 0)  -->
<svg version="1.1" id="Capa_1" xmlns="http://www.w3.org/2000/svg" xmlns:xlink="http://www.w3.org/1999/xlink" x="0px" y="0px"
	 viewBox="0 0 812 804" style="enable-background:new 0 0 812 804;" xml:space="preserve">
<style type="text/css">
	.st0{clip-path:url(#SVGID_2_);}
	.st1{opacity:0.1;fill:#333333;enable-background:new    ;}
</style>
<title>img__hacemos--Recurso 86</title>
<g id="Capa_2_1_">
	<g id="Capa_13">
		<g>
			<defs>
				<rect id="SVGID_1_" x="-8" width="820" height="804"/>
			</defs>
			<clipPath id="SVGID_2_">
				<use xlink:href="#SVGID_1_"  style="overflow:visible;"/>
			</clipPath>
			<g class="st0">
				<path class="st1" d="M1003.3,601.7l104.1-60.1L590.9,243.5v206l-148.7-85.9v476.2L590.9,754v206l516.4-298.2L1003.3,601.7z
					 M608.2,273.4l464.6,268.2L986,591.7L608.2,373.6L608.2,273.4z M459.5,809.9V393.6l131.5,75.9V734L459.5,809.9z M608.2,479.5
					L820,601.7L608.2,724V479.5z M608.2,744l246.4-142.2L608.2,459.5v-65.9l360.5,208.1L608.2,809.9V744z M608.2,829.9L986,611.7
					l86.8,50.1L608.2,930.1V829.9z"/>
			</g>
		</g>
	</g>
</g>
</svg>
