<?xml version="1.0" encoding="utf-8"?>
<!-- Generator: Adobe Illustrator 22.1.0, SVG Export Plug-In . SVG Version: 6.00 Build 0)  -->
<svg version="1.1" id="Capa_1" xmlns="http://www.w3.org/2000/svg" xmlns:xlink="http://www.w3.org/1999/xlink" x="0px" y="0px"
	 viewBox="0 0 157.9 170" style="enable-background:new 0 0 157.9 170;" xml:space="preserve">
<style type="text/css">
	.st0{fill:url(#SVGID_1_);}
</style>
<title>img__hacemos--Recurso 82</title>
<g id="Capa_2_1_">
	<g id="Capa_13">
		
			<linearGradient id="SVGID_1_" gradientUnits="userSpaceOnUse" x1="0" y1="-3742.73" x2="157.8201" y2="-3742.73" gradientTransform="matrix(1 0 0 -1 0 -3657.7202)">
			<stop  offset="0" style="stop-color:#DE5A24"/>
			<stop  offset="0.14" style="stop-color:#EA6517"/>
			<stop  offset="0.36" style="stop-color:#FA7406"/>
			<stop  offset="0.54" style="stop-color:#FF7900"/>
			<stop  offset="0.94" style="stop-color:#FF8927"/>
		</linearGradient>
		<path class="st0" d="M133.1,85l24.7-14.2L35.3,0v48.9L0,28.5v113l35.3-20.4V170l122.5-70.8L133.1,85z M39.4,7.1l110.2,63.6
			l-20.6,11.9L39.4,30.9V7.1z M4.1,134.4V35.6l31.2,18v62.8L4.1,134.4z M39.4,56l50.2,29l-50.2,29V56z M39.4,118.8L97.9,85
			L39.4,51.2V35.6L125,85l-85.5,49.4V118.8z M39.4,139.1l89.6-51.8l20.6,11.9L39.4,162.9V139.1z"/>
	</g>
</g>
</svg>
