<?xml version="1.0" encoding="utf-8"?>
<!-- Generator: Adobe Illustrator 22.1.0, SVG Export Plug-In . SVG Version: 6.00 Build 0)  -->
<svg version="1.1" id="Capa_1" xmlns="http://www.w3.org/2000/svg" xmlns:xlink="http://www.w3.org/1999/xlink" x="0px" y="0px"
	 viewBox="0 0 169.7 170" style="enable-background:new 0 0 169.7 170;" xml:space="preserve">
<style type="text/css">
	.st0{fill:#FFFFFF;}
</style>
<title>img__hacemos--Recurso 80</title>
<g id="Capa_2_1_">
	<g id="Capa_13">
		<path class="st0" d="M157.7,8.3l-14.8,14.8c-32.7-30.8-83.7-30.8-116.4,0L5.2,1.8L1.6,5.5l21.3,21.3c-32,34.3-30.2,88.1,4.1,120.1
			c30.2,28.2,76.3,30.6,109.3,5.6l-3.1-4.1c-35,26.7-85.1,20-111.8-15c-23.7-31-21.5-74.6,5.2-103l137.7,137.7l3.7-3.7L30.2,26.8
			C60.8-2,108.6-2,139.3,26.8L92.2,73.9l3.7,3.7l47.1-47.1c26.8,28.5,28.9,72.2,5.1,103.2l4.1,3.2c25.4-33,23.1-79.7-5.5-110
			L161.4,12L157.7,8.3z"/>
	</g>
</g>
</svg>
