<?xml version="1.0" encoding="utf-8"?>
<!-- Generator: Adobe Illustrator 22.1.0, SVG Export Plug-In . SVG Version: 6.00 Build 0)  -->
<svg version="1.1" id="Capa_1" xmlns="http://www.w3.org/2000/svg" xmlns:xlink="http://www.w3.org/1999/xlink" x="0px" y="0px"
	 viewBox="0 0 170 172.9" style="enable-background:new 0 0 170 172.9;" xml:space="preserve">
<style type="text/css">
	.st0{fill:#FFFFFF;}
</style>
<title>img__hacemos--Recurso 83</title>
<path class="st0" d="M133.4,36.6C127.4,15.5,108,0,85,0S42.6,15.5,36.6,36.6C15.5,42.6,0,62,0,85c0,23,15.5,42.4,36.6,48.4
	C42.6,154.5,62,170,85,170s42.4-15.5,48.4-36.6c21.1-6,36.6-25.4,36.6-48.4C170,62,154.5,42.6,133.4,36.6z M85,4.7
	c19.9,0,36.9,12.9,43,30.7c-2.7-0.4-5.5-0.7-8.3-0.7c-13.5,0-25.7,5.3-34.7,14c-9-8.7-21.3-14-34.7-14c-2.8,0-5.6,0.2-8.3,0.7
	C48.1,17.6,65.1,4.7,85,4.7z M130.5,50.3c0,12.2-4.8,23.3-12.7,31.5c-5.5-4.8-12-8.3-19.2-10.4c-2-7.2-5.6-13.7-10.4-19.2
	c8.2-7.9,19.3-12.7,31.5-12.7c3.3,0,6.6,0.4,9.7,1.1C130.1,43.7,130.5,46.9,130.5,50.3z M129.5,129.5c-3.1,0.7-6.4,1.1-9.7,1.1
	c-12.2,0-23.3-4.8-31.5-12.7c4.8-5.5,8.3-12,10.4-19.2c7.2-2,13.7-5.6,19.2-10.4c7.9,8.2,12.7,19.3,12.7,31.5
	C130.5,123.1,130.1,126.3,129.5,129.5z M39.5,119.7c0-12.2,4.8-23.3,12.7-31.5c5.5,4.8,12,8.3,19.2,10.4c2,7.2,5.6,13.7,10.4,19.2
	c-8.2,7.9-19.3,12.7-31.5,12.7c-3.3,0-6.6-0.4-9.7-1.1C39.9,126.3,39.5,123.1,39.5,119.7z M40.5,40.5c3.1-0.7,6.4-1.1,9.7-1.1
	c12.2,0,23.3,4.8,31.5,12.7c-4.8,5.5-8.3,12-10.4,19.2c-7.2,2-13.7,5.6-19.2,10.4c-7.9-8.2-12.7-19.3-12.7-31.5
	C39.5,46.9,39.9,43.7,40.5,40.5z M93.3,70.2c-2.7-0.4-5.5-0.7-8.3-0.7c-2.8,0-5.6,0.2-8.3,0.7c1.9-5.4,4.7-10.3,8.3-14.5
	C88.6,59.9,91.4,64.8,93.3,70.2z M95.8,85c0,3.3-0.4,6.6-1.1,9.7c-3.1,0.7-6.4,1.1-9.7,1.1c-3.3,0-6.6-0.4-9.7-1.1
	c-0.7-3.1-1.1-6.4-1.1-9.7s0.4-6.6,1.1-9.7c3.1-0.7,6.4-1.1,9.7-1.1c3.3,0,6.6,0.4,9.7,1.1C95.4,78.4,95.8,81.7,95.8,85z M99.8,76.7
	c5.4,1.9,10.3,4.7,14.5,8.3c-4.3,3.6-9.2,6.4-14.5,8.3c0.4-2.7,0.7-5.5,0.7-8.3C100.5,82.2,100.3,79.4,99.8,76.7z M70.2,93.3
	c-5.4-1.9-10.3-4.7-14.5-8.3c4.3-3.6,9.2-6.4,14.5-8.3c-0.4,2.7-0.7,5.5-0.7,8.3S69.7,90.6,70.2,93.3z M76.7,99.8
	c2.7,0.4,5.5,0.7,8.3,0.7c2.8,0,5.6-0.2,8.3-0.7c-1.9,5.4-4.7,10.3-8.3,14.5C81.4,110.1,78.6,105.2,76.7,99.8z M4.7,85
	c0-19.9,12.9-36.9,30.7-43c-0.4,2.7-0.7,5.5-0.7,8.3c0,13.5,5.3,25.7,14,34.7c-8.7,9-14,21.3-14,34.7c0,2.8,0.2,5.6,0.7,8.3
	C17.6,121.9,4.7,104.9,4.7,85z M85,165.3c-19.9,0-36.9-12.9-43-30.7c2.7,0.4,5.5,0.7,8.3,0.7c13.5,0,25.7-5.3,34.7-14
	c9,8.7,21.3,14,34.7,14c2.8,0,5.6-0.2,8.3-0.7C121.9,152.4,104.9,165.3,85,165.3z M134.6,128c0.4-2.7,0.7-5.5,0.7-8.3
	c0-13.5-5.3-25.7-14-34.7c8.7-9,14-21.3,14-34.7c0-2.8-0.2-5.6-0.7-8.3c17.8,6.2,30.7,23.1,30.7,43
	C165.3,104.9,152.4,121.9,134.6,128z"/>
</svg>
