<svg xmlns="http://www.w3.org/2000/svg" xmlns:xlink="http://www.w3.org/1999/xlink" viewBox="0 0 103.17 103.17"><defs><style>.cls-1{fill:url(#Degradado_sin_nombre_53);}</style><linearGradient id="Degradado_sin_nombre_53" y1="51.59" x2="103.17" y2="51.59" gradientUnits="userSpaceOnUse"><stop offset="0" stop-color="#de5a24"/><stop offset="0.14" stop-color="#ea6517"/><stop offset="0.36" stop-color="#fa7406"/><stop offset="0.54" stop-color="#ff7900"/><stop offset="0.94" stop-color="#ff8927"/></linearGradient></defs><title>Recurso 74mdpi</title><g id="Capa_2" data-name="Capa 2"><g id="Elementos"><path class="cls-1" d="M0,51.59l51.59,51.58,51.58-51.58L51.59,0ZM50.19,74.73,40,64.56l10.17-9.71ZM38.05,62.59,28.44,53H48.1Zm-9.61-12.4L50.19,28.44V50.19Zm-4,0H5.34L50.19,5.34V24.49Zm0,2.79L36,64.51l-9.8,9.36L5.34,53ZM38,66.49,50.19,78.68V97.83l-22-22ZM53,53V28.44L76.13,51.59,53,74.73Zm0,44.85V78.68L80.07,51.59,53,24.49V5.34L99.22,51.59Z"/></g></g></svg>