<svg xmlns="http://www.w3.org/2000/svg" xmlns:xlink="http://www.w3.org/1999/xlink" viewBox="0 0 89.47 99.89"><defs><style>.cls-1{fill:url(#Degradado_sin_nombre_53);}</style><linearGradient id="Degradado_sin_nombre_53" y1="49.95" x2="89.47" y2="49.95" gradientUnits="userSpaceOnUse"><stop offset="0" stop-color="#de5a24"/><stop offset="0.14" stop-color="#ea6517"/><stop offset="0.36" stop-color="#fa7406"/><stop offset="0.54" stop-color="#ff7900"/><stop offset="0.94" stop-color="#ff8927"/></linearGradient></defs><title>Recurso 75mdpi</title><g id="Capa_2" data-name="Capa 2"><g id="Elementos"><path class="cls-1" d="M5.5,79l12,7a11,11,0,0,0,5.51,1.47h.08a11.09,11.09,0,0,0,4.06,4.1l12,7a11,11,0,0,0,11,0l12-7a11.16,11.16,0,0,0,4.06-4.1h.08a11,11,0,0,0,5.5-1.47l12-7a11,11,0,0,0,5.51-9.53V55.51a11,11,0,0,0-1.53-5.57,11,11,0,0,0,1.53-5.56V30.47A11,11,0,0,0,84,20.94l-12-7a11.07,11.07,0,0,0-5.58-1.47,11.16,11.16,0,0,0-4.06-4.1l-12-6.95a11,11,0,0,0-11,0l-12,7a11.09,11.09,0,0,0-4.06,4.1A11.13,11.13,0,0,0,17.54,14l-12,7A11,11,0,0,0,0,30.47V44.38a11,11,0,0,0,1.52,5.56A11.11,11.11,0,0,0,0,55.51V69.42A11,11,0,0,0,5.5,79Zm18.91,3V68a8.31,8.31,0,0,1,4.14-7.17l12-7A8.33,8.33,0,0,1,43,53a8.08,8.08,0,0,1,.41,2.5V69.42a8.33,8.33,0,0,1-4.14,7.17l-12,7a8.33,8.33,0,0,1-2.37.9A8.08,8.08,0,0,1,24.41,81.94Zm0-50.08V18a8.08,8.08,0,0,1,.41-2.5,8.33,8.33,0,0,1,2.37.9l12,7a8.33,8.33,0,0,1,4.14,7.17V44.38a8.08,8.08,0,0,1-.41,2.5,8.33,8.33,0,0,1-2.37-.9L28.55,39A8.31,8.31,0,0,1,24.41,31.86ZM65.05,18V31.86A8.29,8.29,0,0,1,60.91,39L48.87,46a8.22,8.22,0,0,1-2.37.9,8.38,8.38,0,0,1-.4-2.5V30.47a8.31,8.31,0,0,1,4.14-7.17l12-6.95a8.22,8.22,0,0,1,2.37-.9A8.38,8.38,0,0,1,65.05,18Zm0,50.08V81.94a8.38,8.38,0,0,1-.4,2.5,8.22,8.22,0,0,1-2.37-.9l-12-7a8.31,8.31,0,0,1-4.14-7.17V55.51a8.38,8.38,0,0,1,.4-2.5,8.22,8.22,0,0,1,2.37.9l12,7A8.29,8.29,0,0,1,65.05,68ZM44.57,50l.08-.14h.16l.08.13c0,.05,0,.1-.08.14h-.16ZM62.28,58.5l-12-7a8.08,8.08,0,0,1-2-1.61,8.28,8.28,0,0,1,2-1.6l12-7a8.34,8.34,0,0,1,8.28,0l12,7a8.43,8.43,0,0,1,2,1.6,8.22,8.22,0,0,1-2,1.61l-12,7A8.32,8.32,0,0,1,62.28,58.5ZM27.19,41.39l12,7a8,8,0,0,1,2,1.6,7.85,7.85,0,0,1-2,1.61l-12,7a8.32,8.32,0,0,1-8.28,0l-12-7a8.08,8.08,0,0,1-2-1.61,8.28,8.28,0,0,1,2-1.6l12-7a8.34,8.34,0,0,1,8.28,0ZM60.91,89.11l-12,7a8.32,8.32,0,0,1-8.28,0l-12-7a8.15,8.15,0,0,1-2.45-2.18,10.9,10.9,0,0,0,2.45-1l12-7a11,11,0,0,0,4.14-4.26A11.14,11.14,0,0,0,48.87,79l12,7a10.78,10.78,0,0,0,2.46,1A8.31,8.31,0,0,1,60.91,89.11ZM86.74,69.42a8.33,8.33,0,0,1-4.14,7.17l-12,7a8.34,8.34,0,0,1-3.12,1,10.62,10.62,0,0,0,.34-2.64V68a11,11,0,0,0-1.62-5.72l.26,0a11,11,0,0,0,5.5-1.47l12-7a10.87,10.87,0,0,0,2.12-1.61,8.12,8.12,0,0,1,.66,3.21ZM70.56,16.35l12,7a8.33,8.33,0,0,1,4.14,7.17V44.38a8.12,8.12,0,0,1-.66,3.21A10.87,10.87,0,0,0,84,46L71.92,39a11,11,0,0,0-5.76-1.46,11,11,0,0,0,1.62-5.71V18a10.62,10.62,0,0,0-.34-2.64A8.34,8.34,0,0,1,70.56,16.35Zm-42-5.57,12-6.95a8.34,8.34,0,0,1,8.28,0l12,7A8.31,8.31,0,0,1,63.37,13a10.78,10.78,0,0,0-2.46,1l-12,7a11.07,11.07,0,0,0-4.14,4.26,10.93,10.93,0,0,0-4.14-4.26l-12-7a10.9,10.9,0,0,0-2.45-1A8.15,8.15,0,0,1,28.55,10.78ZM2.73,30.47A8.31,8.31,0,0,1,6.87,23.3l12-6.95a8.36,8.36,0,0,1,3.11-1A11.11,11.11,0,0,0,21.68,18V31.86a10.9,10.9,0,0,0,1.63,5.71A11,11,0,0,0,17.54,39L5.5,46a11.18,11.18,0,0,0-2.12,1.61,8.29,8.29,0,0,1-.65-3.21Zm0,25a8.29,8.29,0,0,1,.65-3.21A11.18,11.18,0,0,0,5.5,53.91l12,7a11,11,0,0,0,5.51,1.47h.26A10.9,10.9,0,0,0,21.68,68V81.94A11.11,11.11,0,0,0,22,84.58a8.36,8.36,0,0,1-3.11-1l-12-7a8.33,8.33,0,0,1-4.14-7.17Z"/></g></g></svg>