<svg xmlns="http://www.w3.org/2000/svg" xmlns:xlink="http://www.w3.org/1999/xlink" viewBox="0 0 88.7 101.47"><defs><style>.cls-1{fill:url(#Degradado_sin_nombre_53);}</style><linearGradient id="Degradado_sin_nombre_53" y1="50.74" x2="88.7" y2="50.74" gradientUnits="userSpaceOnUse"><stop offset="0" stop-color="#de5a24"/><stop offset="0.14" stop-color="#ea6517"/><stop offset="0.36" stop-color="#fa7406"/><stop offset="0.54" stop-color="#ff7900"/><stop offset="0.94" stop-color="#ff8927"/></linearGradient></defs><title>Recurso 83mdpi</title><g id="Capa_2" data-name="Capa 2"><g id="Elementos"><path class="cls-1" d="M87.17,24.25,45.87.41a3,3,0,0,0-3,0L1.52,24.25A3,3,0,0,0,0,26.89V74.58a3,3,0,0,0,1.52,2.64l41.31,23.85a3.09,3.09,0,0,0,3,0l41.3-23.85a3.05,3.05,0,0,0,1.53-2.64V26.89A3.05,3.05,0,0,0,87.17,24.25ZM12.84,71.88l29,16.72L34.24,93l.16.28L12.84,80.79ZM44.59,87a.46.46,0,0,1-.48,0l-31-17.91a.49.49,0,0,1-.24-.42V32.82a.49.49,0,0,1,.24-.42l3.57-2.06h0l8.89-5.13L44.11,14.49a.48.48,0,0,1,.24-.07.55.55,0,0,1,.24.07l31,17.91a.49.49,0,0,1,.24.42V68.65a.49.49,0,0,1-.24.42ZM75.86,29.59,46.91,12.87l7.71-4.45L75.86,20.68ZM44.1,2.62a.54.54,0,0,1,.25-.06.5.5,0,0,1,.24.06l7.47,4.32L34.3,17.19,12.84,29.59V20.68Zm-41.54,72V26.89a.49.49,0,0,1,.24-.42l7.48-4.32V79.32L2.8,75A.48.48,0,0,1,2.56,74.58Zm42,24.27a.48.48,0,0,1-.48,0l-7.48-4.32,37-21.38h0l2.2-1.27V80.8ZM86.14,74.58a.49.49,0,0,1-.25.42l-7.47,4.32V22.15l7.47,4.32a.5.5,0,0,1,.25.42Z"/></g></g></svg>