<?xml version="1.0" standalone="no"?>
<!DOCTYPE svg PUBLIC "-//W3C//DTD SVG 20010904//EN"
 "http://www.w3.org/TR/2001/REC-SVG-20010904/DTD/svg10.dtd">
<svg version="1.0" xmlns="http://www.w3.org/2000/svg"
 width="694.000000pt" height="694.000000pt" viewBox="0 0 694.000000 694.000000"
 preserveAspectRatio="xMidYMid meet">
<metadata>
Created by potrace 1.11, written by Peter Selinger 2001-2013
</metadata>
<g transform="translate(0.000000,694.000000) scale(0.100000,-0.100000)"
fill="#000000" stroke="none">
<path d="M3220 6789 c-137 -17 -175 -23 -275 -45 -916 -200 -1621 -898 -1793
-1774 -34 -169 -36 -195 -36 -410 -1 -180 4 -261 18 -335 2 -11 7 -40 11 -65
29 -182 113 -423 212 -610 225 -428 579 -773 1021 -993 59 -29 131 -63 160
-74 l52 -22 0 -538 0 -539 70 -69 70 -70 740 0 740 0 70 70 70 69 0 539 0 538
53 21 c100 41 313 154 407 217 334 223 593 507 774 851 105 200 190 458 221
670 2 14 8 54 13 90 12 79 13 427 2 478 -5 20 -11 57 -14 82 -3 25 -8 61 -12
80 -8 49 -62 261 -73 285 -4 11 -23 58 -41 105 -159 411 -467 792 -843 1043
-129 86 -157 103 -287 167 -118 59 -254 112 -366 145 -47 14 -89 27 -92 29 -4
2 -23 7 -42 10 -19 3 -64 12 -100 20 -69 15 -119 23 -240 36 -94 9 -404 9
-490 -1z m415 -274 c55 -3 109 -8 120 -10 11 -3 38 -7 60 -10 69 -9 147 -26
240 -52 710 -196 1260 -740 1435 -1418 28 -108 37 -160 55 -305 6 -48 7 -284
1 -335 -30 -271 -89 -470 -203 -693 -99 -193 -213 -349 -370 -503 -212 -206
-437 -353 -705 -459 -106 -42 -106 -42 -152 -109 l-46 -66 0 -516 0 -515 -600
0 -600 0 0 515 0 516 -46 66 c-46 67 -46 67 -152 109 -268 106 -497 255 -704
459 -330 324 -521 718 -573 1181 -6 55 -6 312 0 360 24 187 43 274 90 417 209
631 754 1127 1429 1304 61 15 129 31 151 34 22 3 65 10 95 16 30 5 102 12 160
15 58 4 106 7 107 8 3 2 96 -1 208 -9z"/>
<path d="M2915 4996 l-100 -94 30 -33 c17 -18 39 -42 50 -54 11 -12 112 -117
225 -234 l205 -213 5 -381 5 -382 135 0 135 0 5 382 5 381 205 213 c113 118
226 236 253 263 26 27 47 52 47 56 0 3 -44 48 -97 99 l-97 93 -106 -110 c-58
-60 -160 -166 -227 -237 l-122 -127 -133 137 c-73 76 -176 183 -228 237 l-95
99 -100 -95z"/>
<path d="M2671 942 c-52 -26 -76 -65 -76 -122 0 -57 24 -96 76 -123 32 -16 86
-17 811 -15 768 3 777 3 805 24 87 64 78 188 -18 236 -31 17 -90 18 -799 18
-709 0 -768 -1 -799 -18z"/>
<path d="M2699 333 c-54 -23 -47 -108 11 -123 14 -4 362 -6 773 -6 l748 1 25
22 c45 40 18 112 -43 114 -16 0 -356 1 -757 2 -543 2 -736 -1 -757 -10z"/>
</g>
</svg>
